<svg id="a" version="1.1" viewBox="0 0 64 64" xmlns="http://www.w3.org/2000/svg"><g transform="translate(-.72848 .42278)"><circle cx="34" cy="35" r="24.031" fill="#d40000" stroke-width="2.3307"/><circle transform="rotate(-90)" cx="-35" cy="34" r="21" fill="#a00" stroke-width="2"/><g stroke-width="2.2807" aria-label="y"><path d="m58.936 4.4267q-0.71273 1.4255-0.98 2.2273h-0.35636l-0.26727 0.98-0.71273 0.62364-0.26727 0.71273-0.98 0.98v0.26727l-0.98 1.6036-1.96 0.98 0.26727 0.35636-0.44546 0.44546q-0.40091 1.8264-1.1582 5.4791l-1.2473 1.2473-0.35636 1.6036-0.62364 0.71273q0.13364 1.0691-0.35636 2.2273l-0.66818 0.71273v0.62364h-0.62364l-0.71273 2.2273q-0.89091 1.1136-1.6036 1.3364v0.35636q-1.6036 1.8264-1.2473 4.0982l-0.71273 1.0691v0.62364q-0.49 0.98-1.96 2.6282v0.71273l-0.62364 0.26727v0.71273l-0.98 0.62364v0.62364h-0.35636q-0.04454 1.0691-1.6036 4.3655-0.75728 0.44546-1.96 1.5146l0.26727 0.71273-0.26727 0.89091-1.2473 0.98-0.08909 0.44546q-0.22273 0.17818-1.8709 0.17818l-0.62364 0.35636v0.98q-2.0046 1.6927-2.3164 2.5836h-0.40091l-0.26727 0.62364-0.98 0.71273-1.6036 0.31182-0.71273 0.62364-0.26727 0.71273-2.3164 0.98h-0.26727l-0.35636 0.62364q-1.8264 0.44546-5.5237 1.3364-1.2027 0.26727-5.1673 0.26727-1.0245-0.26727-1.0245-0.26727-0.84637-1.1136-2.5836-1.96l-0.71273-0.98v-1.3364l-0.62364-1.2918v-1.6927l0.35636-0.26727v-1.3364l1.3364-1.6927q1.6036-0.22273 2.2273-0.53455h2.2718q0.08909 0 1.96 0.26727l0.62364 0.71273q0.49 1.47 0.35636 2.2273l-0.62364 0.98q-1.3364 0.89091-2.8509 0.89091l-1.4255-0.26727-1.0245-0.62364h-0.26727v0.98l-0.62364 0.98h0.89091l1.0245 1.6482h0.71273l0.26727 0.62364 1.3364 0.71273q2.5391-0.13364 4.9-0.98 0.31182-0.40091 0.98-0.98 2.0936 0.40091 4.5437-1.6482v-0.35636l0.89091-0.35636v-0.26727l1.3364-1.3364h0.35636l0.62364-1.3364h0.98l2.0046-2.2273q0.89091-1.4255 1.96-4.5437 1.2473-1.2473 1.2473-3.5636h0.35636v-0.62364l0.35636-0.71273 0.62364-0.26727 0.98-2.0046h0.26727v-0.71273l0.98-0.89091 0.35636-3.2964q-0.49-1.2027-0.35636-1.96h0.35636q0.31182-0.71273 0.98-1.2473-1.1582-0.62364-3.2964-0.35636-0.84637-0.35636-1.6927-0.75728-0.84637-0.35636-1.5146-1.2027-1.2027-0.40091-1.3364-0.35636l-1.0245-1.2473h-0.26727q0.13364-1.0691-1.6036-3.8309l-0.35636-1.6927q0.08909-0.53455 0.57909-2.1382 0.44546-1.3364 0.40091-2.0936l0.98-0.35636 0.17818-0.71273 0.49-0.26727v-0.35636l1.6036-1.2473 0.71273-1.6036v-0.71273l0.62364-0.98-0.35636-0.98 0.35636-0.98-0.35636-0.62364q-1.6927 0.13364-2.9846 0.98-0.49 1.47-1.2473 1.96-1.47 0.22273-3.5636 1.6036h-0.35636l-1.6036-0.26727-0.35636-0.35636 0.35636-0.98 0.62364-0.35636 0.71273 0.35636 1.6036-0.62364 0.98-0.98 0.26727-0.71273q0.75728-0.98 2.5836-2.5836h0.75728l1.96-1.2473q0.66818 0.089091 2.2273-0.26727 1.7373-0.35636 2.3164-0.35636 0.66818 0 2.2273 0.62364 0.49 1.8709 1.3364 3.8309h-0.35636l-0.62364 0.35636v1.3364h-0.35636v0.26727h-0.26727l-0.17818 1.6927-0.44546 0.89091 0.26727 1.6927-0.62364 2.2273-0.71273 0.62364v0.71273h-0.26727l-0.98 1.6482h-0.35636q0.08909 0.35636-0.26727 1.7818 0.66818 1.7373 1.2473 2.1382v0.26727q0.71273 0.22273 1.6036 1.3364l0.35636 0.98 0.62364 0.35636 2.5836-0.44546q0.93546-0.71273 2.6727-2.2273l0.26727-0.62364 1.3364-0.35636v-0.89091q0.53455-0.57909 1.0691-2.4946 0.71273-2.45 0.89091-2.8064l1.2918-1.2473 0.62364-2.6727 0.71273-0.89091v-0.35636h0.26727l0.35636-0.98h0.35636l0.62364-0.35636 0.35636-1.2473h0.26727v-0.98l0.35636-0.35636v-2.2273l0.98-0.98q0.98-0.26727 2.94-0.98h1.96z" stroke="#d40000" stroke-width=".38929"/></g></g></svg>
